<svg width="200" height="50" viewBox="0 0 200 50" fill="none" xmlns="http://www.w3.org/2000/svg">
<path d="M24.7206 0.911621V6.51058H6.31164V17.5783H21.4333V22.9168H6.31164V39.1929H0V0.911621H24.7206Z" fill="#911C1C"/>
<path d="M34.5826 1.04167C35.2401 1.69271 35.6346 2.60417 35.6346 3.64583C35.6346 4.6875 35.2401 5.46875 34.5826 6.11979C33.9252 6.77083 33.0047 7.16146 31.9528 7.16146C30.9008 7.16146 30.1119 6.77083 29.3229 6.11979C28.6655 5.46875 28.271 4.55729 28.271 3.64583C28.271 2.60417 28.6655 1.82292 29.3229 1.04167C29.9804 0.390625 30.9008 0 31.9528 0C33.0047 0 33.7937 0.390625 34.5826 1.04167ZM34.8456 11.1979V39.1927H28.9285V11.1979H34.8456Z" fill="#911C1C"/>
<path d="M43.261 36.9792C40.8941 35.2865 39.7107 32.9427 39.7107 29.9479H45.4964C45.6279 31.3802 46.2853 32.6823 47.6002 33.5937C48.9152 34.5052 50.4931 35.026 52.4655 35.026C54.3064 35.026 55.7528 34.6354 56.9362 33.9844C58.1196 33.3333 58.6456 32.4219 58.6456 31.25C58.6456 30.3385 58.3826 29.6875 57.8566 29.1667C57.3307 28.6458 56.6732 28.3854 55.7528 28.125C54.8323 27.8646 53.5174 27.7344 51.808 27.474H51.6765L50.8876 27.3438C48.6522 27.0833 46.6798 26.6927 45.2334 26.1719C43.787 25.651 42.472 24.8698 41.6831 23.8281C40.7626 22.7865 40.3682 21.4844 40.3682 19.6615C40.3682 17.9688 40.8941 16.4063 41.8146 15.1042C42.735 13.8021 44.1814 12.7604 45.8908 11.9792C47.6002 11.1979 49.5726 10.9375 51.808 10.9375C55.3583 10.9375 58.2511 11.7188 60.355 13.2812C62.5904 14.8438 63.7738 17.0573 63.9053 19.9219H58.1196C57.9881 18.6198 57.3307 17.5781 56.1472 16.7969C54.9638 16.0156 53.5174 15.4948 51.808 15.4948C50.0986 15.4948 48.6522 15.8854 47.7317 16.5365C46.6798 17.1875 46.1538 18.099 46.1538 19.2708C46.1538 20.0521 46.4168 20.7031 46.8113 21.0938C47.3373 21.4844 47.9947 21.7448 48.7837 22.0052C49.5726 22.1354 50.7561 22.3958 52.334 22.526C52.4655 22.526 52.4655 22.526 52.597 22.526C52.7284 22.526 52.7284 22.526 52.8599 22.526C55.3583 22.7865 57.3307 23.1771 59.0401 23.6979C60.618 24.2188 62.0644 25 62.9849 26.1719C64.0368 27.3438 64.5628 28.9062 64.5628 30.8594C64.5628 32.5521 64.0368 34.1146 62.9849 35.4167C61.9329 36.7188 60.4865 37.7604 58.6456 38.5417C56.8047 39.1927 54.8323 39.5833 52.4655 39.5833C48.6522 39.4531 45.6279 38.6719 43.261 36.9792Z" fill="#911C1C"/>
<path d="M75.3452 0.911621V17.9689L74.4248 16.6668C75.3452 14.9741 76.6602 13.5418 78.2381 12.5002C79.816 11.4585 81.7884 10.9377 84.2867 10.9377C87.7055 10.9377 90.4669 11.9793 92.5707 13.9325C94.6746 16.0158 95.7266 19.271 95.7266 23.8283V39.1929H89.8094V24.0887C89.8094 21.4845 89.2834 19.4012 88.1 17.9689C86.9166 16.5366 85.2072 15.8856 83.1033 15.8856C81.5254 15.8856 80.2105 16.2762 79.027 16.9272C77.8436 17.7085 77.0546 18.7502 76.3972 20.0522C75.7397 21.3543 75.4767 23.047 75.4767 24.87V39.0627H69.5596V0.911621H75.3452Z" fill="#911C1C"/>
<path d="M149.507 11.1976L157.396 32.8122L165.023 11.1976H171.335L158.58 43.4893C157.922 45.182 157.265 46.4841 156.739 47.3955C156.213 48.307 155.555 48.958 154.635 49.3486C153.846 49.7393 152.794 49.9997 151.348 49.9997H144.905V44.7913H149.112C149.901 44.7913 150.559 44.6611 150.953 44.5309C151.348 44.4007 151.742 44.1403 152.005 43.7497C152.268 43.359 152.531 42.708 152.926 41.9268L154.109 39.1924L143.064 11.0674H149.507V11.1976Z" fill="#911C1C"/>
<path d="M179.224 37.63C176.989 36.4582 175.279 34.7655 174.096 32.6821C172.913 30.4686 172.255 27.9946 172.255 25.13C172.255 22.2655 172.781 19.6613 173.965 17.578C175.148 15.4946 176.726 13.8019 178.83 12.63C180.934 11.4582 183.3 10.8071 186.062 10.8071C188.823 10.8071 191.19 11.328 193.294 12.3696C195.398 13.4113 196.976 14.9738 198.159 17.0571C199.343 19.1405 200 21.4842 200 24.0884C200 24.479 200 24.7394 200 25.13C200 25.5207 200 25.9113 199.869 26.3019H178.567C178.567 26.4321 178.567 26.4321 178.567 26.4321V26.5623C178.698 28.1248 178.961 29.5571 179.619 30.729C180.276 31.9009 181.197 32.8123 182.38 33.4634C183.563 34.1144 184.878 34.5051 186.456 34.5051C188.297 34.5051 189.875 34.1144 191.059 33.203C192.373 32.2915 193.162 31.1196 193.557 29.5571H199.606C199.211 31.3801 198.554 33.0728 197.37 34.5051C196.187 35.9373 194.74 37.1092 193.031 38.0207C191.19 38.8019 189.218 39.3228 186.982 39.3228C184.089 39.453 181.46 38.8019 179.224 37.63ZM182.775 16.4061C181.723 16.9269 180.802 17.7082 180.145 18.7498C179.487 19.7915 178.961 20.8332 178.83 22.1353H193.951C193.688 20.0519 192.899 18.3592 191.585 17.3175C190.27 16.1457 188.429 15.6248 186.325 15.6248C185.141 15.4946 183.958 15.8853 182.775 16.4061Z" fill="#911C1C"/>
<path d="M135.437 7.94287H129.257L125.707 4.03662H114.004L110.454 7.94287H104.273C102.17 7.94287 100.329 9.63558 100.329 11.8491V35.0262C100.329 37.1095 102.038 38.9324 104.273 38.9324H135.437C137.541 38.9324 139.382 37.2397 139.382 35.0262V11.7189C139.382 9.63558 137.672 7.94287 135.437 7.94287ZM135.437 34.896H104.405V11.7189H112.294L115.845 7.81266H124.129L127.548 11.7189H135.437V34.896ZM119.921 13.672C114.53 13.672 110.191 17.9689 110.191 23.3075C110.191 28.646 114.53 32.9429 119.921 32.9429C125.312 32.9429 129.651 28.646 129.651 23.3075C129.651 17.9689 125.312 13.672 119.921 13.672ZM119.921 29.1668C116.765 29.1668 114.135 26.5627 114.135 23.4377C114.135 20.3127 116.765 17.7085 119.921 17.7085C123.077 17.7085 125.707 20.3127 125.707 23.4377C125.707 26.5627 123.077 29.1668 119.921 29.1668Z" fill="#911C1C"/>
</svg>
